<?xml version="1.0" standalone="no"?>
<!DOCTYPE svg PUBLIC "-//W3C//DTD SVG 20010904//EN"
 "http://www.w3.org/TR/2001/REC-SVG-20010904/DTD/svg10.dtd">
<svg version="1.0" xmlns="http://www.w3.org/2000/svg"
 width="15.000000pt" height="15.000000pt" viewBox="0 0 512.000000 512.000000"
 preserveAspectRatio="xMidYMid meet">

<g transform="translate(0.000000,512.000000) scale(0.100000,-0.100000)"
fill="#000000" stroke="none">
<path d="M1325 4468 c-16 -6 -43 -20 -58 -31 -38 -26 -1202 -1772 -1216 -1824
-14 -47 -14 -59 0 -106 14 -52 1178 -1798 1216 -1824 15 -11 43 -25 62 -31 25
-9 447 -12 1613 -12 1405 0 1583 2 1616 16 47 19 88 58 113 106 18 36 19 85
19 1798 0 1713 -1 1762 -19 1798 -25 48 -66 87 -113 106 -33 14 -211 16 -1620
15 -1091 0 -1592 -4 -1613 -11z m2945 -1908 l0 -1490 -1382 0 -1383 1 -490
736 c-269 404 -490 743 -490 753 0 10 221 349 490 753 l490 736 1383 1 1382 0
0 -1490z"/>
<path d="M2017 3313 l-147 -148 302 -302 303 -303 -303 -303 -302 -302 150
-150 150 -150 303 303 302 302 302 -302 303 -303 150 150 150 150 -302 302
-303 303 303 303 302 302 -150 150 -150 150 -303 -303 -302 -302 -300 300
c-165 165 -302 300 -305 300 -3 0 -71 -66 -153 -147z"/>
</g>
</svg>
