<?xml version="1.0" standalone="no"?>
<!DOCTYPE svg PUBLIC "-//W3C//DTD SVG 20010904//EN"
 "http://www.w3.org/TR/2001/REC-SVG-20010904/DTD/svg10.dtd">
<svg version="1.0" xmlns="http://www.w3.org/2000/svg"
 width="20.000000pt" height="20.000000pt" viewBox="0 0 512.000000 512.000000"
 preserveAspectRatio="xMidYMid meet">

<g transform="translate(0.000000,512.000000) scale(0.100000,-0.100000)"
fill="#000000" stroke="none">
<path d="M844 5101 c-69 -32 -99 -79 -129 -205 -67 -288 -182 -402 -494 -489
-135 -39 -169 -61 -202 -132 -24 -51 -24 -109 0 -161 30 -65 78 -97 202 -133
301 -85 424 -209 495 -495 20 -77 34 -114 57 -141 109 -133 314 -76 347 94 39
202 69 271 161 363 80 81 173 129 343 179 131 37 177 67 207 133 24 52 24 110
0 162 -30 66 -76 96 -208 134 -318 91 -431 210 -498 523 -13 59 -24 87 -48
114 -61 69 -153 90 -233 54z m234 -872 l44 -35 -42 -29 c-22 -15 -68 -57 -100
-92 l-60 -64 -67 69 c-38 38 -81 79 -98 91 l-29 22 34 26 c19 14 64 56 100 94
l65 67 55 -57 c30 -32 74 -73 98 -92z"/>
<path d="M2698 5111 c-75 -24 -116 -78 -142 -186 -31 -125 -72 -164 -213 -203
-40 -11 -86 -30 -102 -41 -95 -68 -106 -217 -22 -300 27 -27 58 -43 124 -64
148 -46 182 -80 215 -210 34 -131 92 -182 208 -182 105 0 170 60 194 180 28
138 65 171 244 221 132 37 189 165 130 289 -24 52 -70 82 -163 109 -95 28
-154 63 -176 106 -9 17 -24 64 -34 105 -21 84 -46 124 -96 155 -38 24 -125 34
-167 21z"/>
<path d="M3858 4701 c-84 -27 -148 -111 -148 -193 0 -70 25 -105 167 -242 304
-289 740 -722 771 -765 101 -140 91 -343 -23 -481 -26 -30 -52 -66 -59 -80
-39 -74 -24 -161 38 -225 70 -74 174 -83 255 -25 89 65 191 230 233 376 32
112 32 305 0 417 -26 93 -69 180 -127 262 -64 90 -868 883 -935 922 -59 35
-127 48 -172 34z"/>
<path d="M2211 3729 c-25 -8 -245 -220 -868 -839 -460 -456 -855 -855 -879
-887 -106 -139 -156 -293 -156 -478 0 -181 50 -339 150 -472 51 -69 741 -781
834 -861 81 -69 215 -140 318 -169 61 -17 157 -18 1721 -18 l1655 0 41 27 c63
41 88 90 88 169 0 54 -5 72 -27 106 -15 22 -44 51 -65 64 l-38 24 -1218 5
-1218 5 844 825 c465 453 853 838 863 855 13 21 19 50 19 96 0 54 -5 72 -27
106 -50 75 -138 107 -228 83 -38 -10 -71 -38 -223 -188 l-178 -176 -646 646
-647 647 67 70 c73 78 93 126 83 200 -13 93 -83 159 -177 166 -30 3 -69 0 -88
-6z m479 -1360 l645 -640 -102 -97 c-55 -53 -267 -260 -470 -459 l-369 -362
-645 639 -644 639 462 461 c254 253 465 460 470 459 4 0 298 -288 653 -640z
m-1225 -1204 l640 -635 -35 -31 c-119 -105 -290 -126 -437 -54 -67 33 -97 62
-462 437 -327 336 -396 411 -421 462 -54 111 -60 211 -18 322 19 52 72 134 86
134 4 0 295 -286 647 -635z"/>
</g>
</svg>
